<?xml version="1.0" encoding="UTF-8"?>
<svg xmlns="http://www.w3.org/2000/svg" width="1026.05" height="952.83" viewBox="0 0 1026.05 952.83">
  <defs>
    <style>
      .cls-1 {
        fill: none;
        stroke: #fff;
        stroke-miterlimit: 10;
        stroke-width: 2.05px;
      }

      .cls-2 {
        fill: #fff;
        stroke-width: 0px;
      }

      .cls-3 {
        opacity: .77;
      }
    </style>
  </defs>
  <g id="Layer_1" data-name="Layer 1">
    <g class="cls-3">
      <path class="cls-2" d="M453.49,148.56l-145.27-61.7v-25.16L453.49,0v26.81l-115.32,47.47,115.32,47.48v26.81Z"/>
      <path class="cls-2" d="M544.79,0l-42.88,148.56h-21.72L523.08,0h21.71Z"/>
      <path class="cls-2" d="M717.82,86.86l-145.27,61.7v-26.81l115.32-47.48-115.32-47.47V0l145.27,61.7v25.16Z"/>
    </g>
  </g>
  <g id="Layer_2" data-name="Layer 2">
    <g>
      <path class="cls-1" d="M513.02,654.13c282.77,0,512-22.92,512-51.2,0-9.15-24.05-17.75-66.15-25.18v24.16c0,.57-4.58,1.02-10.24,1.02s-10.24-.46-10.24-1.02v-27.48c-9.73-1.45-20.18-2.85-31.29-4.18v51.67c0,.57-4.58,1.02-10.24,1.02s-10.24-.46-10.24-1.02v-53.98c-4.96-.53-10.03-1.05-15.2-1.55v34.87c0,6.05-15.04,11.76-41.54,16.76v14.52c0,.57-4.58,1.02-10.24,1.02s-10.24-.46-10.24-1.02v-11.13c-20.66,3.03-45.84,5.73-74.59,8v9.67c0,.57-4.58,1.02-10.24,1.02s-10.24-.46-10.24-1.02v-8.17c-25.51,1.74-53.38,3.15-83.02,4.18v7.85c0,.57-4.58,1.02-10.24,1.02s-10.24-.46-10.24-1.02v-7.2c-25.76.73-52.7,1.18-80.47,1.31v8.42c0,.57-4.58,1.02-10.24,1.02s-10.24-.46-10.24-1.02v-8.38c-32.79-.03-64.54-.49-94.67-1.35v7.2c0,.57-4.58,1.02-10.24,1.02s-10.24-.46-10.24-1.02v-7.85c-29.64-1.04-57.51-2.45-83.02-4.18v8.17c0,.57-4.58,1.02-10.24,1.02s-10.24-.46-10.24-1.02v-9.67c-28.75-2.27-53.93-4.97-74.59-8v11.13c0,.57-4.58,1.02-10.24,1.02s-10.24-.46-10.24-1.02v-14.52c-26.51-5-41.54-10.7-41.54-16.76v-34.87c-5.18.51-10.24,1.03-15.2,1.55v53.98c0,.57-4.58,1.02-10.24,1.02s-10.24-.46-10.24-1.02v-51.67c-11.12,1.34-21.57,2.74-31.29,4.18v27.48c0,.57-4.58,1.02-10.24,1.02s-10.24-.46-10.24-1.02v-24.16c-42.09,7.44-66.15,16.03-66.15,25.18,0,28.28,229.23,51.2,512,51.2Z"/>
      <path class="cls-1" d="M513.02,654.13c-282.77,0-512-22.92-512-51.2v297.69c0,28.28,229.23,51.2,512,51.2s512-22.92,512-51.2v-297.69c0,28.28-229.23,51.2-512,51.2Z"/>
      <path class="cls-1" d="M513.02,389.22c197.94,0,358.4-16.05,358.4-35.84,0-7.89-25.54-15.19-68.78-21.11v22.73c0,.57-4.58,1.02-10.24,1.02s-10.24-.46-10.24-1.02v-25.28c-11.89-1.35-24.77-2.61-38.54-3.77v41.22c0,.57-4.58,1.02-10.24,1.02s-10.24-.46-10.24-1.02v-42.82c-1.76-.13-3.53-.25-5.32-.38v29.26c0,5.39-20.83,10.29-54.86,13.95v10.24c0,.57-4.58,1.02-10.24,1.02s-10.24-.46-10.24-1.02v-8.32c-20.87,1.7-45.15,3-71.68,3.78v8.06c0,.57-4.58,1.02-10.24,1.02s-10.24-.46-10.24-1.02v-7.57c-12.1.22-24.56.34-37.3.34s-25.2-.12-37.3-.34v7.57c0,.57-4.58,1.02-10.24,1.02s-10.24-.46-10.24-1.02v-8.06c-26.52-.78-50.81-2.08-71.68-3.78v8.32c0,.57-4.58,1.02-10.24,1.02s-10.24-.46-10.24-1.02v-10.24c-34.04-3.66-54.87-8.56-54.87-13.95v-29.26c-1.79.12-3.56.25-5.32.38v42.82c0,.57-4.58,1.02-10.24,1.02s-10.24-.46-10.24-1.02v-41.22c-13.77,1.16-26.66,2.42-38.54,3.77v25.28c0,.57-4.58,1.02-10.24,1.02s-10.24-.46-10.24-1.02v-22.73c-43.24,5.92-68.78,13.22-68.78,21.11,0,19.79,160.46,35.84,358.4,35.84Z"/>
      <path class="cls-1" d="M513.02,389.22c-197.94,0-358.4-16.05-358.4-35.84v247.86c0,6.05,15.04,11.76,41.54,16.76v-67.7c0-.47,3.19-.86,7.51-.98-1.57-1.13-2.79-3.06-3.16-4.88-.43-2.1.47-2.99.5-5.27.02-2-.64-4.92-3.98-8.55.63.12,1.47.34,2.39.8,1.03.51,1.79,1.12,2.29,1.59-.41-1.22-1.15-3.92-.5-7.26.58-2.99,1.99-5.06,2.78-6.06.42,2.5,1.19,5.71,2.68,9.24,1.47,3.47,3.19,6.22,4.67,8.25.05-.43.21-1.19.7-1.99.47-.77,1.04-1.24,1.39-1.49.43,1.69,1.02,5.02-.2,8.75-.25.77-1.69,4.94-4.21,6.87,4.37.12,7.61.51,7.61.99v71.09c20.66,3.03,45.84,5.73,74.59,8v-72.55s.06-.05.08-.08c.33-.44,3.36-.79,7.44-.91-1.57-1.13-2.79-3.06-3.16-4.88-.43-2.1.47-2.99.5-5.27.02-2-.64-4.92-3.98-8.55.63.12,1.47.34,2.39.8,1.03.51,1.79,1.12,2.29,1.59-.41-1.22-1.15-3.92-.5-7.26.58-2.99,1.99-5.06,2.78-6.06.42,2.5,1.19,5.71,2.68,9.24,1.47,3.47,3.19,6.22,4.67,8.25.05-.43.21-1.19.7-1.99.47-.77,1.04-1.24,1.39-1.49.43,1.69,1.02,5.02-.2,8.75-.25.77-1.69,4.94-4.21,6.87,1.26.03,2.43.09,3.45.17,2.51.19,4.16.48,4.16.82v74.05c25.51,1.74,53.38,3.15,83.02,4.18v-74.37c0-.47,3.19-.86,7.51-.98-1.57-1.13-2.79-3.06-3.16-4.88-.15-.72-.13-1.3-.05-1.84.15-1.03.54-1.93.55-3.43.02-2-.64-4.92-3.98-8.55.63.12,1.47.34,2.39.8,1.03.51,1.79,1.12,2.29,1.59-.41-1.22-1.15-3.92-.5-7.26.58-2.99,1.99-5.06,2.78-6.06.42,2.5,1.19,5.71,2.68,9.24,1.47,3.47,3.19,6.22,4.67,8.25.05-.43.21-1.19.7-1.99.47-.77,1.04-1.24,1.39-1.49.43,1.67,1,4.94-.16,8.62-.01.04-.02.08-.03.13-.25.77-1.69,4.94-4.21,6.87,4.37.12,7.61.51,7.61.99v75.02c30.13.85,61.88,1.32,94.67,1.35v-73.84c0-.44,2.81-.81,6.73-.96-1.59-1.13-2.82-3.07-3.19-4.91-.43-2.1.47-2.99.5-5.27,0-.12,0-.25-.01-.37-.06-1.98-.82-4.76-3.96-8.17.63.12,1.47.34,2.39.8,1.03.51,1.79,1.12,2.29,1.59-.41-1.22-1.15-3.92-.5-7.26.58-2.99,1.99-5.06,2.78-6.06.42,2.5,1.19,5.71,2.68,9.24,1.47,3.47,3.19,6.22,4.67,8.25.05-.43.21-1.19.7-1.99.47-.77,1.04-1.24,1.39-1.49.28,1.11.63,2.94.49,5.11-.07,1.13-.27,2.36-.69,3.64-.25.76-1.68,4.91-4.18,6.85,4.77.09,8.4.5,8.4,1.01v73.8c27.77-.13,54.71-.58,80.47-1.31v-75.02c0-.44,2.81-.81,6.73-.96-1.59-1.13-2.82-3.07-3.19-4.91-.17-.84-.13-1.49-.01-2.11.17-.93.5-1.79.51-3.16.02-2-.64-4.92-3.98-8.55.63.12,1.47.34,2.39.8,1.03.51,1.79,1.12,2.29,1.59-.41-1.22-1.15-3.92-.5-7.26.58-2.99,1.99-5.06,2.78-6.06.42,2.5,1.19,5.71,2.68,9.24,1.47,3.47,3.19,6.22,4.67,8.25.05-.43.21-1.19.7-1.99.47-.77,1.04-1.24,1.39-1.49.43,1.69,1.02,5.02-.2,8.75-.01.04-.03.1-.05.15-.35,1.03-1.75,4.85-4.13,6.7,4.77.09,8.4.5,8.4,1.01v74.37c29.64-1.04,57.51-2.45,83.02-4.18v-74.05c0-.34,1.65-.63,4.16-.82.78-.06,1.64-.1,2.57-.14-1.59-1.13-2.82-3.07-3.19-4.91-.43-2.1.47-2.99.5-5.27.02-2-.64-4.92-3.98-8.55.63.12,1.47.34,2.39.8,1.03.51,1.79,1.12,2.29,1.59-.41-1.22-1.15-3.92-.5-7.26.58-2.99,1.99-5.06,2.78-6.06.42,2.5,1.19,5.71,2.68,9.24,1.47,3.47,3.19,6.22,4.67,8.25.05-.43.21-1.19.7-1.99.47-.77,1.04-1.24,1.39-1.49.43,1.69,1.02,5.02-.2,8.75-.25.76-1.68,4.91-4.18,6.85,4.52.08,7.96.46,8.32.93.02.03.08.05.08.08v72.55c28.75-2.27,53.93-4.97,74.59-8v-71.09c0-.44,2.81-.81,6.73-.96-1.59-1.13-2.82-3.07-3.19-4.91-.43-2.1.47-2.99.5-5.27.02-2-.64-4.92-3.98-8.55.63.12,1.47.34,2.39.8,1.03.51,1.79,1.12,2.29,1.59-.41-1.22-1.15-3.92-.5-7.26.58-2.99,1.99-5.06,2.78-6.06.42,2.5,1.19,5.71,2.68,9.24,1.47,3.47,3.19,6.22,4.67,8.25.05-.43.21-1.19.7-1.99.47-.77,1.04-1.24,1.39-1.49.43,1.69,1.02,5.02-.2,8.75-.25.76-1.68,4.91-4.18,6.85,4.77.09,8.4.5,8.4,1.01v67.7c26.51-5,41.54-10.7,41.54-16.76v-247.86c0,19.79-160.46,35.84-358.4,35.84Z"/>
      <ellipse class="cls-1" cx="513.02" cy="148.56" rx="204.8" ry="20.48"/>
      <path class="cls-1" d="M513.02,169.04c-113.11,0-204.8-9.17-204.8-20.48v204.66c0,5.39,20.83,10.29,54.87,13.95v-71.98c0-.46,3.03-.84,7.18-.97-1.58-1.13-2.8-3.06-3.17-4.89-.43-2.1.47-2.99.5-5.27.02-2-.64-4.92-3.98-8.55.63.12,1.47.34,2.39.8,1.03.51,1.79,1.12,2.29,1.59-.41-1.22-1.15-3.92-.5-7.26.58-2.99,1.99-5.06,2.78-6.06.42,2.5,1.19,5.71,2.68,9.24,1.47,3.47,3.19,6.22,4.67,8.25.05-.43.21-1.19.7-1.99.47-.77,1.04-1.24,1.39-1.49.43,1.69,1.02,5.02-.2,8.75-.25.77-1.68,4.92-4.19,6.86,4.55.1,7.94.51,7.94,1v73.9c20.87,1.7,45.15,3,71.68,3.78v-74.16c0-.46,3.03-.84,7.18-.97-1.58-1.13-2.8-3.06-3.17-4.89-.43-2.1.47-2.99.5-5.27.02-2-.64-4.92-3.98-8.55.63.12,1.47.34,2.39.8,1.03.51,1.79,1.12,2.29,1.59-.41-1.22-1.15-3.92-.5-7.26.58-2.99,1.99-5.06,2.78-6.06.42,2.5,1.19,5.71,2.68,9.24,1.47,3.47,3.19,6.22,4.67,8.25.05-.43.21-1.19.7-1.99.47-.77,1.04-1.24,1.39-1.49.43,1.69,1.02,5.02-.2,8.75-.25.77-1.68,4.92-4.19,6.86,4.55.1,7.94.51,7.94,1v74.65c12.1.22,24.56.34,37.3.34s25.2-.12,37.3-.34v-74.65c0-.44,2.81-.81,6.73-.96-1.59-1.13-2.82-3.07-3.19-4.91-.43-2.1.47-2.99.5-5.27.02-2-.64-4.92-3.98-8.55.63.12,1.47.34,2.39.8,1.03.51,1.79,1.12,2.29,1.59-.41-1.22-1.15-3.92-.5-7.26.58-2.99,1.99-5.06,2.78-6.06.42,2.5,1.19,5.71,2.68,9.24,1.47,3.47,3.19,6.22,4.67,8.25.05-.43.21-1.19.7-1.99.47-.77,1.04-1.24,1.39-1.49.43,1.69,1.02,5.02-.2,8.75-.25.76-1.68,4.91-4.18,6.85,4.77.09,8.4.5,8.4,1.01v74.16c26.52-.78,50.81-2.08,71.68-3.78v-73.9c0-.44,2.81-.81,6.73-.96-1.59-1.13-2.82-3.07-3.19-4.91-.43-2.1.47-2.99.5-5.27.02-2-.64-4.92-3.98-8.55.63.12,1.47.34,2.39.8,1.03.51,1.79,1.12,2.29,1.59-.41-1.22-1.15-3.92-.5-7.26.58-2.99,1.99-5.06,2.78-6.06.42,2.5,1.19,5.71,2.68,9.24,1.47,3.47,3.19,6.22,4.67,8.25.05-.43.21-1.19.7-1.99.47-.77,1.04-1.24,1.39-1.49.43,1.69,1.02,5.02-.2,8.75-.25.76-1.68,4.91-4.18,6.85,4.77.09,8.4.5,8.4,1.01v71.98c34.04-3.66,54.86-8.56,54.86-13.95v-204.66c0,11.31-91.69,20.48-204.8,20.48Z"/>
      <path class="cls-1" d="M570.8,298.72c0-.5-3.62-.92-8.4-1.01-.81.63-1.74,1.03-2.78,1-.91-.03-1.78-.4-2.57-.96-3.92.14-6.73.52-6.73.96,0,.57,4.58,1.02,10.24,1.02s10.24-.46,10.24-1.02Z"/>
      <path class="cls-1" d="M560.56,299.74c-5.66,0-10.24-.46-10.24-1.02v82.22c0,.57,4.58,1.02,10.24,1.02s10.24-.46,10.24-1.02v-82.22c0,.57-4.58,1.02-10.24,1.02Z"/>
      <path class="cls-1" d="M566.78,282.12c-.35.25-.92.72-1.39,1.49-.49.8-.64,1.56-.7,1.99-1.48-2.03-3.21-4.78-4.67-8.25-1.49-3.53-2.27-6.74-2.68-9.24-.79,1-2.2,3.07-2.78,6.06-.65,3.34.08,6.03.5,7.26-.5-.47-1.25-1.08-2.29-1.59-.92-.45-1.76-.68-2.39-.8,3.34,3.63,4,6.55,3.98,8.55-.02,2.28-.92,3.17-.5,5.27.37,1.84,1.6,3.78,3.19,4.91.79.56,1.66.93,2.57.96,1.04.03,1.97-.37,2.78-1,2.5-1.94,3.93-6.08,4.18-6.85,1.22-3.73.63-7.05.2-8.75Z"/>
      <path class="cls-1" d="M802.65,272.77c0-.5-3.62-.92-8.4-1.01-.81.63-1.74,1.03-2.78,1-.91-.03-1.78-.4-2.57-.96-3.92.14-6.73.52-6.73.96,0,.57,4.58,1.02,10.24,1.02s10.24-.46,10.24-1.02Z"/>
      <path class="cls-1" d="M792.41,273.8c-5.66,0-10.24-.46-10.24-1.02v82.22c0,.57,4.58,1.02,10.24,1.02s10.24-.46,10.24-1.02v-82.22c0,.57-4.58,1.02-10.24,1.02Z"/>
      <path class="cls-1" d="M798.63,256.18c-.35.25-.92.72-1.39,1.49-.49.8-.64,1.56-.7,1.99-1.48-2.03-3.21-4.78-4.67-8.25-1.49-3.53-2.27-6.74-2.68-9.24-.79,1-2.2,3.07-2.78,6.06-.65,3.34.08,6.03.5,7.26-.5-.47-1.25-1.08-2.29-1.59-.92-.45-1.76-.68-2.39-.8,3.34,3.63,4,6.55,3.98,8.55-.02,2.28-.92,3.17-.5,5.27.37,1.84,1.6,3.78,3.19,4.91.79.56,1.66.93,2.57.96,1.04.03,1.97-.37,2.78-1,2.5-1.94,3.93-6.08,4.18-6.85,1.22-3.73.63-7.05.2-8.75Z"/>
      <path class="cls-1" d="M743.62,284.94c0-.5-3.62-.92-8.4-1.01-.81.63-1.74,1.03-2.78,1-.91-.03-1.78-.4-2.57-.96-3.92.14-6.73.52-6.73.96,0,.57,4.58,1.02,10.24,1.02s10.24-.46,10.24-1.02Z"/>
      <path class="cls-1" d="M733.38,285.97c-5.66,0-10.24-.46-10.24-1.02v82.22c0,.57,4.58,1.02,10.24,1.02s10.24-.46,10.24-1.02v-82.22c0,.57-4.58,1.02-10.24,1.02Z"/>
      <path class="cls-1" d="M739.6,268.34c-.35.25-.92.72-1.39,1.49-.49.8-.64,1.56-.7,1.99-1.48-2.03-3.21-4.78-4.67-8.25-1.49-3.53-2.27-6.74-2.68-9.24-.79,1-2.2,3.07-2.78,6.06-.65,3.34.08,6.03.5,7.26-.5-.47-1.25-1.08-2.29-1.59-.92-.45-1.76-.68-2.39-.8,3.34,3.63,4,6.55,3.98,8.55-.02,2.28-.92,3.16-.5,5.27.37,1.84,1.6,3.78,3.19,4.91.79.56,1.66.93,2.57.96,1.04.03,1.97-.37,2.78-1,2.5-1.94,3.93-6.08,4.18-6.85,1.22-3.73.63-7.05.2-8.75Z"/>
      <path class="cls-1" d="M662.96,295.2c0-.5-3.62-.92-8.4-1.01-.81.63-1.74,1.03-2.78,1-.91-.03-1.78-.4-2.57-.96-3.92.14-6.73.52-6.73.96,0,.57,4.58,1.02,10.24,1.02s10.24-.46,10.24-1.02Z"/>
      <path class="cls-1" d="M652.72,296.22c-5.66,0-10.24-.46-10.24-1.02v82.22c0,.57,4.58,1.02,10.24,1.02s10.24-.46,10.24-1.02v-82.22c0,.57-4.58,1.02-10.24,1.02Z"/>
      <path class="cls-1" d="M658.94,278.6c-.35.25-.92.72-1.39,1.49-.49.8-.64,1.56-.7,1.99-1.48-2.03-3.21-4.78-4.67-8.25-1.49-3.53-2.27-6.74-2.68-9.24-.79,1-2.2,3.07-2.78,6.06-.65,3.34.08,6.03.5,7.26-.5-.47-1.25-1.08-2.29-1.59-.92-.45-1.76-.68-2.39-.8,3.34,3.63,4,6.55,3.98,8.55-.02,2.28-.92,3.16-.5,5.27.37,1.84,1.6,3.78,3.19,4.91.79.56,1.66.93,2.57.96,1.04.03,1.97-.37,2.78-1,2.5-1.94,3.93-6.08,4.18-6.85,1.22-3.73.63-7.05.2-8.75Z"/>
      <path class="cls-1" d="M475.72,298.72c0-.49-3.4-.89-7.94-1-.81.63-1.73,1.02-2.77.99-.92-.03-1.8-.4-2.59-.97-4.15.13-7.18.51-7.18.97,0,.57,4.58,1.02,10.24,1.02s10.24-.46,10.24-1.02Z"/>
      <path class="cls-1" d="M465.48,299.74c-5.66,0-10.24-.46-10.24-1.02v82.22c0,.57,4.58,1.02,10.24,1.02s10.24-.46,10.24-1.02v-82.22c0,.57-4.58,1.02-10.24,1.02Z"/>
      <path class="cls-1" d="M472.17,282.12c-.35.25-.92.72-1.39,1.49-.49.8-.64,1.56-.7,1.99-1.48-2.03-3.21-4.78-4.67-8.25-1.49-3.53-2.27-6.74-2.68-9.24-.79,1-2.2,3.07-2.78,6.06-.65,3.34.08,6.03.5,7.26-.5-.47-1.25-1.08-2.29-1.59-.92-.45-1.76-.68-2.39-.8,3.34,3.63,4,6.55,3.98,8.55-.02,2.28-.92,3.17-.5,5.27.37,1.83,1.59,3.77,3.17,4.89.79.57,1.67.94,2.59.97,1.03.03,1.95-.37,2.77-.99,2.51-1.94,3.94-6.09,4.19-6.86,1.22-3.73.63-7.05.2-8.75Z"/>
      <path class="cls-1" d="M243.88,272.77c0-.49-3.4-.89-7.94-1-.81.63-1.73,1.02-2.77.99-.92-.03-1.8-.4-2.59-.97-4.15.13-7.18.51-7.18.97,0,.57,4.58,1.02,10.24,1.02s10.24-.46,10.24-1.02Z"/>
      <path class="cls-1" d="M233.64,273.8c-5.66,0-10.24-.46-10.24-1.02v82.22c0,.57,4.58,1.02,10.24,1.02s10.24-.46,10.24-1.02v-82.22c0,.57-4.58,1.02-10.24,1.02Z"/>
      <path class="cls-1" d="M240.33,256.18c-.35.25-.92.72-1.39,1.49-.49.8-.64,1.56-.7,1.99-1.48-2.03-3.21-4.78-4.67-8.25-1.49-3.53-2.27-6.74-2.68-9.24-.79,1-2.2,3.07-2.78,6.06-.65,3.34.08,6.03.5,7.26-.5-.47-1.25-1.08-2.29-1.59-.92-.45-1.76-.68-2.39-.8,3.34,3.63,4,6.55,3.98,8.55-.02,2.28-.92,3.17-.5,5.27.37,1.83,1.59,3.77,3.17,4.89.79.57,1.67.94,2.59.97,1.03.03,1.95-.37,2.77-.99,2.51-1.94,3.94-6.09,4.19-6.86,1.22-3.73.63-7.05.2-8.75Z"/>
      <path class="cls-1" d="M302.9,284.94c0-.49-3.4-.89-7.94-1-.81.63-1.73,1.02-2.77.99-.92-.03-1.8-.4-2.59-.97-4.15.13-7.18.51-7.18.97,0,.57,4.58,1.02,10.24,1.02s10.24-.46,10.24-1.02Z"/>
      <path class="cls-1" d="M292.66,285.97c-5.66,0-10.24-.46-10.24-1.02v82.22c0,.57,4.58,1.02,10.24,1.02s10.24-.46,10.24-1.02v-82.22c0,.57-4.58,1.02-10.24,1.02Z"/>
      <path class="cls-1" d="M299.35,268.34c-.35.25-.92.72-1.39,1.49-.49.8-.64,1.56-.7,1.99-1.48-2.03-3.21-4.78-4.67-8.25-1.49-3.53-2.27-6.74-2.68-9.24-.79,1-2.2,3.07-2.78,6.06-.65,3.34.08,6.03.5,7.26-.5-.47-1.25-1.08-2.29-1.59-.92-.45-1.76-.68-2.39-.8,3.34,3.63,4,6.55,3.98,8.55-.02,2.28-.92,3.16-.5,5.27.37,1.83,1.59,3.77,3.17,4.89.79.57,1.67.94,2.59.97,1.03.03,1.95-.37,2.77-.99,2.51-1.94,3.94-6.09,4.19-6.86,1.22-3.73.63-7.05.2-8.75Z"/>
      <path class="cls-1" d="M383.57,295.2c0-.49-3.4-.89-7.94-1-.81.63-1.73,1.02-2.77.99-.92-.03-1.8-.4-2.59-.97-4.15.13-7.18.51-7.18.97,0,.57,4.58,1.02,10.24,1.02s10.24-.46,10.24-1.02Z"/>
      <path class="cls-1" d="M373.33,296.22c-5.66,0-10.24-.46-10.24-1.02v82.22c0,.57,4.58,1.02,10.24,1.02s10.24-.46,10.24-1.02v-82.22c0,.57-4.58,1.02-10.24,1.02Z"/>
      <path class="cls-1" d="M380.02,278.6c-.35.25-.92.72-1.39,1.49-.49.8-.64,1.56-.7,1.99-1.48-2.03-3.21-4.78-4.67-8.25-1.49-3.53-2.27-6.74-2.68-9.24-.79,1-2.2,3.07-2.78,6.06-.65,3.34.08,6.03.5,7.26-.5-.47-1.25-1.08-2.29-1.59-.92-.45-1.76-.68-2.39-.8,3.34,3.63,4,6.55,3.98,8.55-.02,2.28-.92,3.16-.5,5.27.37,1.83,1.59,3.77,3.17,4.89.79.57,1.67.94,2.59.97,1.03.03,1.95-.37,2.77-.99,2.51-1.94,3.94-6.09,4.19-6.86,1.22-3.73.63-7.05.2-8.75Z"/>
      <path class="cls-1" d="M516.62,562.27c-3.92.14-6.73.52-6.73.96,0,.57,4.58,1.02,10.24,1.02s10.24-.46,10.24-1.02c0-.5-3.62-.92-8.4-1.01-.81.63-1.74,1.03-2.78,1-.91-.03-1.78-.4-2.57-.96Z"/>
      <path class="cls-1" d="M520.13,564.26c-5.66,0-10.24-.46-10.24-1.02v82.22c0,.57,4.58,1.02,10.24,1.02s10.24-.46,10.24-1.02v-82.22c0,.57-4.58,1.02-10.24,1.02Z"/>
      <path class="cls-1" d="M526.35,546.63c-.35.25-.92.72-1.39,1.49-.49.8-.64,1.56-.7,1.99-1.48-2.03-3.21-4.78-4.67-8.25-1.49-3.53-2.27-6.74-2.68-9.24-.79,1-2.2,3.07-2.78,6.06-.65,3.34.08,6.03.5,7.26-.5-.47-1.25-1.08-2.29-1.59-.92-.45-1.76-.68-2.39-.8,3.14,3.41,3.9,6.19,3.96,8.17,0,.12.01.26.01.37-.02,2.28-.92,3.17-.5,5.27.37,1.84,1.6,3.78,3.19,4.91.79.56,1.66.93,2.57.96,1.04.03,1.97-.37,2.78-1,2.5-1.94,3.93-6.08,4.18-6.85.42-1.28.61-2.5.69-3.64.14-2.17-.2-4-.49-5.11Z"/>
      <path class="cls-1" d="M958.88,519.68c0-.5-3.62-.92-8.4-1.01-.81.63-1.74,1.03-2.78,1-.91-.03-1.78-.4-2.57-.96-3.92.14-6.73.52-6.73.96,0,.57,4.58,1.02,10.24,1.02s10.24-.46,10.24-1.02Z"/>
      <path class="cls-1" d="M948.64,520.71c-5.66,0-10.24-.46-10.24-1.02v82.22c0,.57,4.58,1.02,10.24,1.02s10.24-.46,10.24-1.02v-82.22c0,.57-4.58,1.02-10.24,1.02Z"/>
      <path class="cls-1" d="M954.86,503.08c-.35.25-.92.72-1.39,1.49-.49.8-.64,1.56-.7,1.99-1.48-2.03-3.21-4.78-4.67-8.25-1.49-3.53-2.27-6.74-2.68-9.24-.79,1-2.2,3.07-2.78,6.06-.65,3.34.08,6.03.5,7.26-.5-.47-1.25-1.08-2.29-1.59-.92-.45-1.76-.68-2.39-.8,3.34,3.63,4,6.55,3.98,8.55-.02,2.28-.92,3.17-.5,5.27.37,1.84,1.6,3.78,3.19,4.91.79.56,1.66.93,2.57.96,1.04.03,1.97-.37,2.78-1,2.5-1.94,3.93-6.08,4.18-6.85,1.22-3.73.63-7.05.2-8.75Z"/>
      <path class="cls-1" d="M907.1,539.68c0-.5-3.62-.92-8.4-1.01-.81.63-1.74,1.03-2.78,1-.91-.03-1.78-.4-2.57-.96-3.92.14-6.73.52-6.73.96,0,.57,4.58,1.02,10.24,1.02s10.24-.46,10.24-1.02Z"/>
      <path class="cls-1" d="M896.86,540.71c-5.66,0-10.24-.46-10.24-1.02v82.22c0,.57,4.58,1.02,10.24,1.02s10.24-.46,10.24-1.02v-82.22c0,.57-4.58,1.02-10.24,1.02Z"/>
      <path class="cls-1" d="M903.08,523.08c-.35.25-.92.72-1.39,1.49-.49.8-.64,1.56-.7,1.99-1.48-2.03-3.21-4.78-4.67-8.25-1.49-3.53-2.27-6.74-2.68-9.24-.79,1-2.2,3.07-2.78,6.06-.65,3.34.08,6.03.5,7.26-.5-.47-1.25-1.08-2.29-1.59-.92-.45-1.76-.68-2.39-.8,3.34,3.63,4,6.55,3.98,8.55-.02,2.28-.92,3.17-.5,5.27.37,1.84,1.6,3.78,3.19,4.91.79.56,1.66.93,2.57.96,1.04.03,1.97-.37,2.78-1,2.5-1.94,3.93-6.08,4.18-6.85,1.22-3.73.63-7.05.2-8.75Z"/>
      <path class="cls-1" d="M617.57,559.75c-3.92.14-6.73.52-6.73.96,0,.57,4.58,1.02,10.24,1.02s10.24-.46,10.24-1.02c0-.5-3.62-.92-8.4-1.01-.81.63-1.74,1.03-2.78,1-.91-.03-1.78-.4-2.57-.96Z"/>
      <path class="cls-1" d="M621.07,561.73c-5.66,0-10.24-.46-10.24-1.02v82.22c0,.57,4.58,1.02,10.24,1.02s10.24-.46,10.24-1.02v-82.22c0,.57-4.58,1.02-10.24,1.02Z"/>
      <path class="cls-1" d="M627.29,544.11c-.35.25-.92.72-1.39,1.49-.49.8-.64,1.56-.7,1.99-1.48-2.03-3.2-4.78-4.67-8.25-1.49-3.53-2.27-6.74-2.68-9.24-.79,1-2.2,3.07-2.78,6.06-.65,3.34.08,6.03.5,7.26-.5-.47-1.25-1.08-2.29-1.59-.92-.45-1.76-.68-2.39-.8,3.34,3.63,4,6.55,3.98,8.55-.01,1.36-.34,2.23-.51,3.16-.11.62-.16,1.27.01,2.11.37,1.84,1.6,3.78,3.19,4.91.79.56,1.66.93,2.57.96,1.04.03,1.97-.37,2.78-1,2.38-1.85,3.78-5.67,4.13-6.7.02-.05.04-.11.05-.15,1.22-3.73.63-7.05.2-8.75Z"/>
      <path class="cls-1" d="M721.07,555.88c-.93.03-1.79.08-2.57.14.99.04,1.99.09,2.97.13-.14-.08-.27-.17-.4-.27Z"/>
      <path class="cls-1" d="M734.74,556.76c-.35-.47-3.8-.85-8.32-.93-.25.19-.52.36-.79.5,3.05.14,6.09.28,9.11.43Z"/>
      <path class="cls-1" d="M724.57,557.86c5.66,0,10.24-.46,10.24-1.02,0-.03-.06-.05-.08-.08-3.02-.15-6.06-.29-9.11-.43-.61.33-1.27.52-1.99.5-.76-.02-1.49-.28-2.17-.69-.99-.04-1.98-.09-2.97-.13-2.51.19-4.16.48-4.16.82,0,.57,4.58,1.02,10.24,1.02Z"/>
      <path class="cls-1" d="M724.57,557.86c-5.66,0-10.24-.46-10.24-1.02v82.22c0,.57,4.58,1.02,10.24,1.02s10.24-.46,10.24-1.02v-82.22c0,.57-4.58,1.02-10.24,1.02Z"/>
      <path class="cls-1" d="M730.79,540.24c-.35.25-.92.72-1.39,1.49-.49.8-.64,1.56-.7,1.99-1.48-2.03-3.21-4.78-4.67-8.25-1.49-3.53-2.27-6.74-2.68-9.24-.79,1-2.2,3.07-2.78,6.06-.65,3.34.08,6.03.5,7.26-.5-.47-1.25-1.08-2.29-1.59-.92-.45-1.76-.68-2.39-.8,3.34,3.63,4,6.55,3.98,8.55-.02,2.28-.92,3.17-.5,5.27.37,1.84,1.6,3.78,3.19,4.91.13.09.26.19.4.27.68.4,1.41.67,2.17.69.72.02,1.38-.18,1.99-.5.27-.14.54-.31.79-.5,2.5-1.94,3.93-6.08,4.18-6.85,1.22-3.73.63-7.05.2-8.75Z"/>
      <path class="cls-1" d="M829.88,550.29c0-.5-3.62-.92-8.4-1.01-.81.63-1.74,1.03-2.78,1-.91-.03-1.78-.4-2.57-.96-3.92.14-6.73.52-6.73.96,0,.57,4.58,1.02,10.24,1.02s10.24-.46,10.24-1.02Z"/>
      <path class="cls-1" d="M819.64,551.32c-5.66,0-10.24-.46-10.24-1.02v82.22c0,.57,4.58,1.02,10.24,1.02s10.24-.46,10.24-1.02v-82.22c0,.57-4.58,1.02-10.24,1.02Z"/>
      <path class="cls-1" d="M825.86,533.7c-.35.25-.92.72-1.39,1.49-.49.8-.64,1.56-.7,1.99-1.48-2.03-3.21-4.78-4.67-8.25-1.49-3.53-2.27-6.74-2.68-9.24-.79,1-2.2,3.07-2.78,6.06-.65,3.34.08,6.03.5,7.26-.5-.47-1.25-1.08-2.29-1.59-.92-.45-1.76-.68-2.39-.8,3.34,3.63,4,6.55,3.98,8.55-.02,2.28-.92,3.16-.5,5.27.37,1.84,1.6,3.78,3.19,4.91.79.56,1.66.93,2.57.96,1.04.03,1.97-.37,2.78-1,2.5-1.94,3.93-6.08,4.18-6.85,1.22-3.73.63-7.05.2-8.75Z"/>
      <path class="cls-1" d="M87.65,519.68c0-.47-3.24-.87-7.61-.99-.81.62-1.72,1.01-2.75.98-.92-.03-1.81-.41-2.61-.98-4.32.12-7.51.51-7.51.98,0,.57,4.58,1.02,10.24,1.02s10.24-.46,10.24-1.02Z"/>
      <path class="cls-1" d="M77.41,520.71c-5.66,0-10.24-.46-10.24-1.02v82.22c0,.57,4.58,1.02,10.24,1.02s10.24-.46,10.24-1.02v-82.22c0,.57-4.58,1.02-10.24,1.02Z"/>
      <path class="cls-1" d="M84.45,503.08c-.35.25-.92.72-1.39,1.49-.49.8-.64,1.56-.7,1.99-1.48-2.03-3.2-4.78-4.67-8.25-1.49-3.53-2.27-6.74-2.68-9.24-.79,1-2.2,3.07-2.78,6.06-.65,3.34.08,6.03.5,7.26-.5-.47-1.25-1.08-2.29-1.59-.92-.45-1.76-.68-2.39-.8,3.34,3.63,4,6.55,3.98,8.55-.02,2.28-.92,3.17-.5,5.27.37,1.82,1.59,3.75,3.16,4.88.8.57,1.68.95,2.61.98,1.03.03,1.94-.36,2.75-.98,2.52-1.93,3.96-6.1,4.21-6.87,1.22-3.73.63-7.05.2-8.75Z"/>
      <path class="cls-1" d="M139.42,539.68c0-.47-3.24-.87-7.61-.99-.81.62-1.72,1.01-2.75.98-.92-.03-1.81-.41-2.61-.98-4.32.12-7.51.51-7.51.98,0,.57,4.58,1.02,10.24,1.02s10.24-.46,10.24-1.02Z"/>
      <path class="cls-1" d="M129.18,540.71c-5.66,0-10.24-.46-10.24-1.02v82.22c0,.57,4.58,1.02,10.24,1.02s10.24-.46,10.24-1.02v-82.22c0,.57-4.58,1.02-10.24,1.02Z"/>
      <path class="cls-1" d="M136.22,523.08c-.35.25-.92.72-1.39,1.49-.49.8-.64,1.56-.7,1.99-1.48-2.03-3.2-4.78-4.67-8.25-1.49-3.53-2.27-6.74-2.68-9.24-.79,1-2.2,3.07-2.78,6.06-.65,3.34.08,6.03.5,7.26-.5-.47-1.25-1.08-2.29-1.59-.92-.45-1.76-.68-2.39-.8,3.34,3.63,4,6.55,3.98,8.55-.02,2.28-.92,3.17-.5,5.27.37,1.82,1.59,3.75,3.16,4.88.8.57,1.68.95,2.61.98,1.03.03,1.94-.36,2.75-.98,2.52-1.93,3.96-6.1,4.21-6.87,1.22-3.73.63-7.05.2-8.75Z"/>
      <path class="cls-1" d="M402.25,559.72c-4.32.12-7.51.51-7.51.98,0,.57,4.58,1.02,10.24,1.02s10.24-.46,10.24-1.02c0-.47-3.24-.87-7.61-.99-.81.62-1.72,1.01-2.75.98-.92-.03-1.81-.41-2.61-.98Z"/>
      <path class="cls-1" d="M404.97,561.73c-5.66,0-10.24-.46-10.24-1.02v82.22c0,.57,4.58,1.02,10.24,1.02s10.24-.46,10.24-1.02v-82.22c0,.57-4.58,1.02-10.24,1.02Z"/>
      <path class="cls-1" d="M412.01,544.11c-.35.25-.92.72-1.39,1.49-.49.8-.64,1.56-.7,1.99-1.48-2.03-3.2-4.78-4.67-8.25-1.49-3.53-2.27-6.74-2.68-9.24-.79,1-2.2,3.07-2.78,6.06-.65,3.34.08,6.03.5,7.26-.5-.47-1.25-1.08-2.29-1.59-.92-.45-1.76-.68-2.39-.8,3.34,3.63,4,6.55,3.98,8.55-.02,1.5-.4,2.39-.55,3.43-.08.54-.09,1.12.05,1.84.37,1.82,1.59,3.75,3.16,4.88.8.57,1.68.95,2.61.98,1.03.03,1.94-.36,2.75-.98,2.52-1.93,3.96-6.1,4.21-6.87.01-.04.02-.08.03-.13,1.17-3.68.59-6.95.16-8.62Z"/>
      <path class="cls-1" d="M298.75,555.86c-4.08.11-7.1.47-7.44.91,2.75-.13,5.53-.26,8.3-.39-.3-.14-.59-.32-.87-.52Z"/>
      <path class="cls-1" d="M307.55,556.02c-1.02-.08-2.18-.13-3.45-.17-.16.12-.32.23-.49.34,1.31-.06,2.63-.11,3.94-.17Z"/>
      <path class="cls-1" d="M301.47,557.86c5.66,0,10.24-.46,10.24-1.02,0-.34-1.65-.63-4.16-.82-1.31.06-2.63.11-3.94.17-.68.42-1.44.67-2.26.65-.6-.02-1.18-.2-1.74-.46-2.78.13-5.55.26-8.3.39-.02.03-.08.05-.08.08,0,.57,4.58,1.02,10.24,1.02Z"/>
      <path class="cls-1" d="M301.47,557.86c-5.66,0-10.24-.46-10.24-1.02v82.22c0,.57,4.58,1.02,10.24,1.02s10.24-.46,10.24-1.02v-82.22c0,.57-4.58,1.02-10.24,1.02Z"/>
      <path class="cls-1" d="M308.51,540.24c-.35.25-.92.72-1.39,1.49-.49.8-.64,1.56-.7,1.99-1.48-2.03-3.21-4.78-4.67-8.25-1.49-3.53-2.27-6.74-2.68-9.24-.79,1-2.2,3.07-2.78,6.06-.65,3.34.08,6.03.5,7.26-.5-.47-1.25-1.08-2.29-1.59-.92-.45-1.76-.68-2.39-.8,3.34,3.63,4,6.55,3.98,8.55-.02,2.28-.92,3.17-.5,5.27.37,1.82,1.59,3.75,3.16,4.88.28.2.57.37.87.52.56.27,1.14.45,1.74.46.82.02,1.58-.23,2.26-.65.17-.1.33-.22.49-.34,2.52-1.93,3.96-6.1,4.21-6.87,1.22-3.73.63-7.05.2-8.75Z"/>
      <path class="cls-1" d="M216.65,550.29c0-.47-3.24-.87-7.61-.99-.81.62-1.72,1.01-2.75.98-.92-.03-1.81-.41-2.61-.98-4.32.12-7.51.51-7.51.98,0,.57,4.58,1.02,10.24,1.02s10.24-.46,10.24-1.02Z"/>
      <path class="cls-1" d="M206.41,551.32c-5.66,0-10.24-.46-10.24-1.02v82.22c0,.57,4.58,1.02,10.24,1.02s10.24-.46,10.24-1.02v-82.22c0,.57-4.58,1.02-10.24,1.02Z"/>
      <path class="cls-1" d="M213.44,533.7c-.35.25-.92.72-1.39,1.49-.49.8-.64,1.56-.7,1.99-1.48-2.03-3.21-4.78-4.67-8.25-1.49-3.53-2.27-6.74-2.68-9.24-.79,1-2.2,3.07-2.78,6.06-.65,3.34.08,6.03.5,7.26-.5-.47-1.25-1.08-2.29-1.59-.92-.45-1.76-.68-2.39-.8,3.34,3.63,4,6.55,3.98,8.55-.02,2.28-.92,3.16-.5,5.27.37,1.82,1.59,3.75,3.16,4.88.8.57,1.68.95,2.61.98,1.03.03,1.94-.36,2.75-.98,2.52-1.93,3.96-6.1,4.21-6.87,1.22-3.73.63-7.05.2-8.75Z"/>
    </g>
    <g>
      <path class="cls-2" d="M453.49,148.56l-145.27-61.7v-25.16L453.49,0v26.81l-115.32,47.47,115.32,47.48v26.81Z"/>
      <path class="cls-2" d="M544.79,0l-42.88,148.56h-21.72L523.08,0h21.71Z"/>
      <path class="cls-2" d="M717.82,86.86l-145.27,61.7v-26.81l115.32-47.48-115.32-47.47V0l145.27,61.7v25.16Z"/>
    </g>
  </g>
</svg>